<svg width="36" height="36" viewBox="0 0 36 36" fill="none" xmlns="http://www.w3.org/2000/svg">
<circle cx="18" cy="18" r="18" fill="white"/>
<path d="M19.8 19.8H16.2V9H19.8V19.8ZM19.8 27H16.2V23.4H19.8V27ZM18 0C15.6362 0 13.2956 0.465584 11.1117 1.37017C8.92784 2.27475 6.94353 3.60062 5.27208 5.27208C1.89642 8.64773 0 13.2261 0 18C0 22.7739 1.89642 27.3523 5.27208 30.7279C6.94353 32.3994 8.92784 33.7252 11.1117 34.6298C13.2956 35.5344 15.6362 36 18 36C22.7739 36 27.3523 34.1036 30.7279 30.7279C34.1036 27.3523 36 22.7739 36 18C36 15.6362 35.5344 13.2956 34.6298 11.1117C33.7252 8.92784 32.3994 6.94353 30.7279 5.27208C29.0565 3.60062 27.0722 2.27475 24.8883 1.37017C22.7044 0.465584 20.3638 0 18 0V0Z" fill="#F9862C"/>
</svg>
