<svg width="37" height="36" viewBox="0 0 37 36" fill="none" xmlns="http://www.w3.org/2000/svg">
<path d="M36.7035 18C36.7035 27.9411 28.6447 36 18.7035 36C8.76241 36 0.703537 27.9411 0.703537 18C0.703537 8.05887 8.76241 0 18.7035 0C28.6447 0 36.7035 8.05887 36.7035 18Z" fill="#E8641B"/>
<path d="M26 10H22.5L21.5 9H16.5L15.5 10H12V12H26V10ZM13 25C13 25.5304 13.2107 26.0391 13.5858 26.4142C13.9609 26.7893 14.4696 27 15 27H23C23.5304 27 24.0391 26.7893 24.4142 26.4142C24.7893 26.0391 25 25.5304 25 25V13H13V25Z" fill="white"/>
</svg>
