<svg width="36" height="36" viewBox="0 0 36 36" fill="none" xmlns="http://www.w3.org/2000/svg">
<circle cx="18" cy="18" r="18" fill="#00B034"/>
<path d="M20 10H13.6C13.1757 10 12.7687 10.1686 12.4686 10.4686C12.1686 10.7687 12 11.1757 12 11.6V24.4C12 24.8243 12.1686 25.2313 12.4686 25.5314C12.7687 25.8314 13.1757 26 13.6 26H23.2C23.6243 26 24.0313 25.8314 24.3314 25.5314C24.6314 25.2313 24.8 24.8243 24.8 24.4V14.8L20 10ZM21.44 24.4H20L18.4 21.68L16.8 24.4H15.36L17.68 20.8L15.36 17.2H16.8L18.4 19.92L20 17.2H21.44L19.12 20.8L21.44 24.4ZM19.2 15.6V11.2L23.6 15.6H19.2Z" fill="white"/>
</svg>
