<svg width="211" height="65" viewBox="0 0 211 65" fill="none" xmlns="http://www.w3.org/2000/svg">
<path d="M9 64.125C6.61305 64.125 4.32387 63.1768 2.63604 61.489C0.948212 59.8011 0 57.5119 0 55.125C0 49.125 9 39 9 39C9 39 18 49.125 18 55.125C18 57.5119 17.0518 59.8011 15.364 61.489C13.6761 63.1768 11.3869 64.125 9 64.125Z" fill="#3DBABA"/>
<path d="M22.6302 14.9424L26.5284 8.06332L55.5799 58.5H48.7648L22.6302 14.9424Z" stroke="white" stroke-width="8"/>
<path d="M78.56 46C77.152 46 75.904 45.616 74.816 44.848C73.728 44.08 72.88 43.04 72.272 41.728C71.664 40.384 71.36 38.848 71.36 37.12V10.912C71.36 10.208 71.584 9.632 72.032 9.184C72.48 8.736 73.056 8.512 73.76 8.512C74.464 8.512 75.04 8.736 75.488 9.184C75.936 9.632 76.16 10.208 76.16 10.912V37.12C76.16 38.304 76.384 39.28 76.832 40.048C77.28 40.816 77.856 41.2 78.56 41.2H79.76C80.4 41.2 80.912 41.424 81.296 41.872C81.712 42.32 81.92 42.896 81.92 43.6C81.92 44.304 81.616 44.88 81.008 45.328C80.4 45.776 79.616 46 78.656 46H78.56ZM96.2015 46.192C93.8655 46.192 91.7695 45.616 89.9135 44.464C88.0575 43.28 86.5855 41.696 85.4975 39.712C84.4415 37.696 83.9135 35.424 83.9135 32.896C83.9135 30.368 84.4895 28.096 85.6415 26.08C86.8255 24.064 88.4095 22.48 90.3935 21.328C92.4095 20.144 94.6655 19.552 97.1615 19.552C99.6575 19.552 101.898 20.144 103.882 21.328C105.866 22.48 107.434 24.064 108.586 26.08C109.77 28.096 110.362 30.368 110.362 32.896V43.6C110.362 44.304 110.122 44.896 109.642 45.376C109.194 45.824 108.618 46.048 107.914 46.048C107.21 46.048 106.618 45.824 106.138 45.376C105.69 44.896 105.466 44.304 105.466 43.6V41.824C104.346 43.168 102.986 44.24 101.386 45.04C99.8175 45.808 98.0895 46.192 96.2015 46.192ZM97.1615 41.872C98.7935 41.872 100.25 41.488 101.53 40.72C102.81 39.92 103.818 38.848 104.554 37.504C105.29 36.128 105.658 34.592 105.658 32.896C105.658 31.168 105.29 29.632 104.554 28.288C103.818 26.912 102.81 25.84 101.53 25.072C100.25 24.272 98.7935 23.872 97.1615 23.872C95.5615 23.872 94.1055 24.272 92.7935 25.072C91.5135 25.84 90.4895 26.912 89.7215 28.288C88.9855 29.632 88.6175 31.168 88.6175 32.896C88.6175 34.592 88.9855 36.128 89.7215 37.504C90.4895 38.848 91.5135 39.92 92.7935 40.72C94.1055 41.488 95.5615 41.872 97.1615 41.872ZM128.592 46.192C126.192 46.192 124.064 45.632 122.208 44.512C120.384 43.36 118.944 41.792 117.888 39.808C116.832 37.792 116.304 35.488 116.304 32.896C116.304 30.272 116.864 27.968 117.984 25.984C119.136 23.968 120.704 22.4 122.688 21.28C124.672 20.128 126.96 19.552 129.552 19.552C132.112 19.552 134.384 20.128 136.368 21.28C138.352 22.4 139.904 23.968 141.024 25.984C142.176 27.968 142.752 30.272 142.752 32.896V43.264C142.752 45.792 142.192 48.08 141.072 50.128C139.952 52.208 138.384 53.856 136.368 55.072C134.384 56.288 132.08 56.896 129.456 56.896C127.184 56.896 125.056 56.448 123.072 55.552C121.088 54.656 119.408 53.344 118.032 51.616C117.616 51.072 117.456 50.512 117.552 49.936C117.68 49.36 118 48.896 118.512 48.544C119.088 48.16 119.68 48.032 120.288 48.16C120.928 48.288 121.44 48.608 121.824 49.12C122.688 50.208 123.776 51.056 125.088 51.664C126.4 52.272 127.888 52.576 129.552 52.576C131.088 52.576 132.496 52.208 133.776 51.472C135.088 50.736 136.128 49.648 136.896 48.208C137.664 46.768 138.048 45.008 138.048 42.928V40.576C137.056 42.304 135.744 43.68 134.112 44.704C132.48 45.696 130.64 46.192 128.592 46.192ZM129.552 41.872C131.216 41.872 132.688 41.488 133.968 40.72C135.248 39.952 136.24 38.896 136.944 37.552C137.68 36.208 138.048 34.656 138.048 32.896C138.048 31.136 137.68 29.584 136.944 28.24C136.24 26.864 135.248 25.792 133.968 25.024C132.688 24.256 131.216 23.872 129.552 23.872C127.888 23.872 126.416 24.256 125.136 25.024C123.856 25.792 122.848 26.864 122.112 28.24C121.376 29.584 121.008 31.136 121.008 32.896C121.008 34.656 121.376 36.208 122.112 37.552C122.848 38.896 123.856 39.952 125.136 40.72C126.416 41.488 127.888 41.872 129.552 41.872ZM161.943 46.192C159.351 46.192 157.063 45.632 155.079 44.512C153.095 43.36 151.527 41.792 150.375 39.808C149.255 37.792 148.695 35.488 148.695 32.896C148.695 30.272 149.255 27.968 150.375 25.984C151.527 23.968 153.095 22.4 155.079 21.28C157.063 20.128 159.351 19.552 161.943 19.552C164.503 19.552 166.775 20.128 168.759 21.28C170.743 22.4 172.295 23.968 173.415 25.984C174.567 27.968 175.143 30.272 175.143 32.896C175.143 35.488 174.583 37.792 173.463 39.808C172.343 41.792 170.791 43.36 168.807 44.512C166.823 45.632 164.535 46.192 161.943 46.192ZM161.943 41.872C163.607 41.872 165.079 41.488 166.359 40.72C167.639 39.952 168.631 38.896 169.335 37.552C170.071 36.208 170.439 34.656 170.439 32.896C170.439 31.136 170.071 29.584 169.335 28.24C168.631 26.864 167.639 25.792 166.359 25.024C165.079 24.256 163.607 23.872 161.943 23.872C160.279 23.872 158.807 24.256 157.527 25.024C156.247 25.792 155.239 26.864 154.503 28.24C153.767 29.584 153.399 31.136 153.399 32.896C153.399 34.656 153.767 36.208 154.503 37.552C155.239 38.896 156.247 39.952 157.527 40.72C158.807 41.488 160.279 41.872 161.943 41.872ZM193.469 46.24C191.261 46.24 189.277 45.776 187.517 44.848C185.789 43.888 184.413 42.496 183.389 40.672C182.397 38.848 181.901 36.608 181.901 33.952V22.144C181.901 21.44 182.125 20.864 182.573 20.416C183.053 19.936 183.645 19.696 184.349 19.696C185.053 19.696 185.629 19.936 186.077 20.416C186.557 20.864 186.797 21.44 186.797 22.144V33.952C186.797 36.672 187.517 38.672 188.957 39.952C190.429 41.2 192.253 41.824 194.429 41.824C195.805 41.824 197.021 41.552 198.077 41.008C199.165 40.464 200.029 39.728 200.669 38.8C201.309 37.872 201.629 36.832 201.629 35.68V22.144C201.629 21.408 201.853 20.816 202.301 20.368C202.781 19.92 203.373 19.696 204.077 19.696C204.813 19.696 205.405 19.92 205.853 20.368C206.301 20.816 206.525 21.408 206.525 22.144V43.552C206.525 44.256 206.301 44.848 205.853 45.328C205.405 45.776 204.813 46 204.077 46C203.373 46 202.781 45.776 202.301 45.328C201.853 44.848 201.629 44.256 201.629 43.552V43.024C200.637 44.016 199.437 44.8 198.029 45.376C196.621 45.952 195.101 46.24 193.469 46.24Z" fill="white"/>
</svg>
