<svg width="64" height="64" viewBox="0 0 64 64" fill="none" xmlns="http://www.w3.org/2000/svg">
<circle cx="32" cy="32" r="32" fill="#E0E0E0"/>
<path fill-rule="evenodd" clip-rule="evenodd" d="M53.2218 55.9511C59.8331 50.0888 63.9999 41.531 63.9999 32C63.9999 14.3269 49.6731 0 32 0C14.3269 0 0 14.3269 0 32C0 41.5311 4.1669 50.0889 10.7783 55.9512C12.896 46.1783 21.5931 38.8571 32.0001 38.8571C42.407 38.8571 51.104 46.1782 53.2218 55.9511ZM32 35.4285C38.3118 35.4285 43.4286 30.3118 43.4286 24C43.4286 17.6882 38.3118 12.5714 32 12.5714C25.6882 12.5714 20.5715 17.6882 20.5715 24C20.5715 30.3118 25.6882 35.4285 32 35.4285Z" fill="#757575"/>
<circle cx="32" cy="32" r="30.5" stroke="#757575" stroke-width="3"/>
</svg>
